<svg xmlns="http://www.w3.org/2000/svg" width="32" height="32" viewBox="0 0 32 32" version="1.1"><path d="M 20.730 8.750 C 19.861 9.713, 17.856 12.975, 16.274 16 L 13.398 21.500 11.290 19 C 10.131 17.625, 8.837 16.842, 8.414 17.260 C 7.657 18.010, 12.700 24, 14.089 24 C 14.483 24, 15.284 22.624, 15.870 20.942 C 16.457 19.261, 18.207 15.998, 19.760 13.692 C 23.968 7.445, 24.198 7, 23.214 7 C 22.717 7, 21.599 7.787, 20.730 8.750" stroke="none" fill="#cacaca" fill-rule="evenodd"/><path d="M 0 16.025 L 0 32.050 16.250 31.775 L 32.500 31.500 32.775 15.750 L 33.051 0 16.525 0 L 0 0 0 16.025 M 0.405 16.500 C 0.406 25.300, 0.559 28.766, 0.745 24.203 C 0.930 19.639, 0.929 12.439, 0.742 8.203 C 0.555 3.966, 0.404 7.700, 0.405 16.500 M 20.730 8.750 C 19.861 9.713, 17.856 12.975, 16.274 16 L 13.398 21.500 11.290 19 C 10.131 17.625, 8.837 16.842, 8.414 17.260 C 7.657 18.010, 12.700 24, 14.089 24 C 14.483 24, 15.284 22.624, 15.870 20.942 C 16.457 19.261, 18.207 15.998, 19.760 13.692 C 23.968 7.445, 24.198 7, 23.214 7 C 22.717 7, 21.599 7.787, 20.730 8.750" stroke="none" fill="#9e0523" fill-rule="evenodd"/></svg>