<svg xmlns="http://www.w3.org/2000/svg" width="16" height="16" viewBox="0 0 16 16" version="1.1"><path d="M 8.926 6.401 C 7.204 9.319, 6.492 9.823, 5.385 8.905 C 4.561 8.221, 4 8.160, 4 8.755 C 4 9.844, 6.863 12.531, 7.343 11.893 C 9.007 9.681, 11.970 3.637, 11.581 3.248 C 11.306 2.973, 10.111 4.392, 8.926 6.401" stroke="none" fill="#b8b0b0" fill-rule="evenodd"/><path d="M 0 8.040 L 0 16.081 8.250 15.790 L 16.500 15.500 16.792 7.750 L 17.084 0 8.542 0 L 0 0 0 8.040 M 0.343 8.500 C 0.346 12.900, 0.522 14.576, 0.733 12.224 C 0.945 9.872, 0.942 6.272, 0.727 4.224 C 0.512 2.176, 0.339 4.100, 0.343 8.500 M 8.926 6.401 C 7.204 9.319, 6.492 9.823, 5.385 8.905 C 4.561 8.221, 4 8.160, 4 8.755 C 4 9.844, 6.863 12.531, 7.343 11.893 C 9.007 9.681, 11.970 3.637, 11.581 3.248 C 11.306 2.973, 10.111 4.392, 8.926 6.401" stroke="none" fill="#88242c" fill-rule="evenodd"/></svg>